<?xml version="1.0" encoding="UTF-8" standalone="no"?>
<svg version="1.1" xmlns="http://www.w3.org/2000/svg" viewBox="0 0 400 400" width="400" height="400">
    <!-- Background -->
    <rect width="100%" height="100%" fill="white" />

    <!-- Hexagonal Frame -->
    <polygon points="200,20 350,100 350,300 200,380 50,300 50,100" stroke="gray" stroke-width="3" fill="none" />

    <!-- Neural Network  Deep Learning Layers -->
    <g stroke="gray" stroke-width="1.5" fill="gray">
        <!-- Input Layer Nodes -->
        
        <circle cx="50" cy="80"  r="5" stroke="gray" stroke-width="3" fill="none"  />

        <circle cx="50" cy="140" r="5" stroke="gray" stroke-width="3" fill="none" />
        <circle cx="50" cy="200" r="5" stroke="gray" stroke-width="3" fill="none" />
        <circle cx="50" cy="260" r="5" stroke="gray" stroke-width="3" fill="none" />
        <circle cx="50" cy="320" r="5" stroke="gray" stroke-width="3" fill="none" />

        <!-- Hidden Layer 1 Nodes -->
        <circle cx="125" cy="60" r="5" stroke="gray" stroke-width="3" fill="none" />
        <circle cx="125" cy="120" r="5" stroke="gray" stroke-width="3" fill="none" />
        <circle cx="125" cy="180" r="5" stroke="gray" stroke-width="3" fill="none" />
        <circle cx="125" cy="240" r="5" stroke="gray" stroke-width="3" fill="none" />
        <circle cx="125" cy="300" r="5" stroke="gray" stroke-width="3" fill="none" />
        <circle cx="125" cy="360" r="5" stroke="gray" stroke-width="3" fill="none" />

        <!-- Hidden Layer 2 Nodes -->
        <circle cx="200" cy="80" r="5" stroke="gray" stroke-width="3" fill="none" />
        <circle cx="200" cy="140" r="5" stroke="gray" stroke-width="3" fill="none" />
        <circle cx="200" cy="200" r="5" stroke="gray" stroke-width="3" fill="none" />
        <circle cx="200" cy="260" r="5" stroke="gray" stroke-width="3" fill="none" />
        <circle cx="200" cy="320" r="5" stroke="gray" stroke-width="3" fill="none" />

        <!-- Hidden Layer 3 Nodes -->
        <circle cx="275" cy="60" r="5" stroke="gray" stroke-width="3" fill="none" />
        <circle cx="275" cy="120" r="5" stroke="gray" stroke-width="3" fill="none" />
        <circle cx="275" cy="180" r="5" stroke="gray" stroke-width="3" fill="none" />
        <circle cx="275" cy="240" r="5" stroke="gray" stroke-width="3" fill="none" />
        <circle cx="275" cy="300" r="5" stroke="gray" stroke-width="3" fill="none" />
        <circle cx="275" cy="360" r="5" stroke="gray" stroke-width="3" fill="none" />

        <!-- Output Layer Nodes -->
        <circle cx="350" cy="100" r="5" stroke="gray" stroke-width="3" fill="none" />
        <circle cx="350" cy="200" r="5" stroke="gray" stroke-width="3" fill="none" />
        <circle cx="350" cy="300" r="5" stroke="gray" stroke-width="3" fill="none" />

        <!-- Connections -->
        <!-- Input Layer to Hidden Layer 1 -->
        <line x1="53" y1="80" x2="122" y2="60" />
        <line x1="50" y1="140" x2="125" y2="120" />
        <line x1="50" y1="200" x2="125" y2="180" />
        <line x1="50" y1="260" x2="125" y2="240" />
        <line x1="50" y1="320" x2="125" y2="300" />

        <!-- Hidden Layer 1 to Hidden Layer 2 -->
        <line x1="125" y1="60" x2="200" y2="80" />
        <line x1="125" y1="120" x2="200" y2="140" />
        <line x1="125" y1="180" x2="200" y2="200" />
        <line x1="125" y1="240" x2="200" y2="260" />
        <line x1="125" y1="300" x2="200" y2="320" />

        <!-- Hidden Layer 2 to Hidden Layer 3 -->
        <line x1="200" y1="80" x2="275" y2="60" />
        <line x1="200" y1="140" x2="275" y2="120" />
        <line x1="200" y1="200" x2="275" y2="180" />
        <line x1="200" y1="260" x2="275" y2="240" />
        <line x1="200" y1="320" x2="275" y2="300" />

        <!-- Hidden Layer 3 to Output Layer -->
        <line x1="275" y1="60" x2="350" y2="100" />
        <line x1="275" y1="180" x2="350" y2="200" />
        <line x1="275" y1="300" x2="350" y2="300" />
    </g>
</svg>
